<svg xmlns="http://www.w3.org/2000/svg" viewBox="0 0 32 32"><defs><filter id="glow" x="-25%" y="-25%" width="150%" height="150%" color-interpolation-filters="sRGB"><feGaussianBlur stdDeviation="0.55" result="b"/><feComponentTransfer in="b" result="soft"><feFuncA type="linear" slope="0.5"/></feComponentTransfer><feMerge><feMergeNode in="soft"/><feMergeNode in="SourceGraphic"/></feMerge></filter></defs><rect x="3" y="3" width="26" height="26" rx="7" fill="#1A1338"/><g filter="url(#glow)"><rect x="3.7" y="3.7" width="24.6" height="24.6" rx="6.3" fill="none" stroke="#2496ED" stroke-width="1.4"/><g transform="translate(16 16) scale(0.88) translate(-16 -16)"><g transform="translate(15.57 15.551) scale(0.749)"><rect x="-10.2" y="-1.4" width="4.2" height="3.6" rx="0.5" fill="#2496ED"/><rect x="-5.1" y="-1.4" width="4.2" height="3.6" rx="0.5" fill="#2496ED"/><rect x="0" y="-1.4" width="4.2" height="3.6" rx="0.5" fill="#2496ED"/><rect x="5.1" y="-1.4" width="4.2" height="3.6" rx="0.5" fill="#2496ED"/><rect x="-5.1" y="-5.9" width="4.2" height="3.6" rx="0.5" fill="#2496ED"/><rect x="0" y="-5.9" width="4.2" height="3.6" rx="0.5" fill="#2496ED"/><rect x="5.1" y="-5.9" width="4.2" height="3.6" rx="0.5" fill="#2496ED"/><rect x="0" y="-10.4" width="4.2" height="3.6" rx="0.5" fill="#2496ED"/><path d="M-11.8 3.2h21.6a1 1 0 0 1 1 1.2 8.6 8.6 0 0 1-8.5 7.2h-6a8.6 8.6 0 0 1-8.5-7.2 1 1 0 0 1 1-1.2Z" fill="#2496ED"/><path d="M10 0.6a4.4 4.4 0 0 1 3.4 1.4l-1.6 2a2.4 2.4 0 0 0-1.8-0.8Z" fill="#2496ED"/></g></g></g></svg>