<svg xmlns="http://www.w3.org/2000/svg" viewBox="0 0 32 32"><defs><filter id="gl" x="-30%" y="-30%" width="160%" height="160%" color-interpolation-filters="sRGB"><feGaussianBlur stdDeviation="0.85" result="b"/><feComponentTransfer in="b" result="s"><feFuncA type="linear" slope="0.7"/></feComponentTransfer><feMerge><feMergeNode in="s"/><feMergeNode in="s"/><feMergeNode in="SourceGraphic"/></feMerge></filter></defs><g filter="url(#gl)"><g transform="translate(15.6 15.4) scale(0.992)"><g transform="translate(-9 0)"><path d="M6 -11.4a3 3 0 0 0-3 3v5.4a3 3 0 0 1-3 3a3 3 0 0 1 3 3v5.4a3 3 0 0 0 3 3" fill="none" stroke="#F2C94C" stroke-width="2.8" stroke-linecap="round" stroke-linejoin="round"/></g><g transform="scale(-1 1)"><g transform="translate(-9 0)"><path d="M6 -11.4a3 3 0 0 0-3 3v5.4a3 3 0 0 1-3 3a3 3 0 0 1 3 3v5.4a3 3 0 0 0 3 3" fill="none" stroke="#F2C94C" stroke-width="2.8" stroke-linecap="round" stroke-linejoin="round"/></g></g></g></g></svg>