<svg xmlns="http://www.w3.org/2000/svg" viewBox="0 0 32 32"><defs><filter id="glow" x="-25%" y="-25%" width="150%" height="150%" color-interpolation-filters="sRGB"><feGaussianBlur stdDeviation="0.55" result="b"/><feComponentTransfer in="b" result="soft"><feFuncA type="linear" slope="0.5"/></feComponentTransfer><feMerge><feMergeNode in="soft"/><feMergeNode in="SourceGraphic"/></feMerge></filter></defs><g filter="url(#glow)"><path d="M4 24.5V7.5A2 2 0 0 1 6 5.5h6.3a2 2 0 0 1 1.55.75l1.8 2.15a2 2 0 0 0 1.55.75H24a2 2 0 0 1 2 2v2.6" fill="#1A1338" stroke="#8B7CF6" stroke-width="2" stroke-linejoin="round" stroke-linecap="round"/><path d="M4.15 24.9 7.05 14.85A1.9 1.9 0 0 1 8.87 13.5H28.2a1.45 1.45 0 0 1 1.4 1.85l-2.6 9.25A2.6 2.6 0 0 1 24.5 26.5H6.1A2 2 0 0 1 4.15 24.9Z" fill="#1A1338" stroke="#8B7CF6" stroke-width="2" stroke-linejoin="round"/></g><g transform="translate(21.8 22) scale(0.72)"><g stroke="#020108" stroke-width="5.2" stroke-linejoin="round" stroke-linecap="round"><circle cx="0" cy="0" r="3.3" fill="#020108"/><path d="M-11.8 0a11.8 5.2 0 1 0 23.6 0a11.8 5.2 0 1 0 -23.6 0ZM-9.6 0a9.6 3 0 1 0 19.2 0a9.6 3 0 1 0 -19.2 0Z" fill="#020108" fill-rule="evenodd"/><g transform="rotate(60)"><path d="M-11.8 0a11.8 5.2 0 1 0 23.6 0a11.8 5.2 0 1 0 -23.6 0ZM-9.6 0a9.6 3 0 1 0 19.2 0a9.6 3 0 1 0 -19.2 0Z" fill="#020108" fill-rule="evenodd"/></g><g transform="rotate(120)"><path d="M-11.8 0a11.8 5.2 0 1 0 23.6 0a11.8 5.2 0 1 0 -23.6 0ZM-9.6 0a9.6 3 0 1 0 19.2 0a9.6 3 0 1 0 -19.2 0Z" fill="#020108" fill-rule="evenodd"/></g></g></g><g filter="url(#glow)"><g transform="translate(21.8 22) scale(0.72)"><circle cx="0" cy="0" r="3.3" fill="#67E8F9"/><path d="M-11.8 0a11.8 5.2 0 1 0 23.6 0a11.8 5.2 0 1 0 -23.6 0ZM-9.6 0a9.6 3 0 1 0 19.2 0a9.6 3 0 1 0 -19.2 0Z" fill="#67E8F9" fill-rule="evenodd"/><g transform="rotate(60)"><path d="M-11.8 0a11.8 5.2 0 1 0 23.6 0a11.8 5.2 0 1 0 -23.6 0ZM-9.6 0a9.6 3 0 1 0 19.2 0a9.6 3 0 1 0 -19.2 0Z" fill="#67E8F9" fill-rule="evenodd"/></g><g transform="rotate(120)"><path d="M-11.8 0a11.8 5.2 0 1 0 23.6 0a11.8 5.2 0 1 0 -23.6 0ZM-9.6 0a9.6 3 0 1 0 19.2 0a9.6 3 0 1 0 -19.2 0Z" fill="#67E8F9" fill-rule="evenodd"/></g></g></g></svg>