<svg xmlns="http://www.w3.org/2000/svg" viewBox="0 0 32 32"><rect x="3" y="3" width="26" height="26" rx="7" fill="#4B5563"/><g transform="translate(16 18.32) scale(0.8)"><rect x="-1.4" y="-12" width="2.8" height="3.6" rx="1.4" fill="#FFFFFF"/><circle cx="0" cy="-12" r="2" fill="#FFFFFF"/><path d="M-6.6 -8.4H6.6A4 4 0 0 1 10.6 -4.4V4.2A4 4 0 0 1 6.6 8.2H-6.6A4 4 0 0 1 -10.6 4.2V-4.4A4 4 0 0 1 -6.6 -8.4Z" fill="#FFFFFF"/><circle cx="-4.6" cy="-1.4" r="2.6" fill="#4B5563"/><circle cx="4.6" cy="-1.4" r="2.6" fill="#4B5563"/><rect x="-4.4" y="3.6" width="8.8" height="2.2" rx="1.1" fill="#4B5563"/><rect x="-12" y="-4.4" width="2.6" height="7.4" rx="1.3" fill="#FFFFFF"/><rect x="9.4" y="-4.4" width="2.6" height="7.4" rx="1.3" fill="#FFFFFF"/></g></svg>