<svg xmlns="http://www.w3.org/2000/svg" viewBox="0 0 32 32"><defs><filter id="sh" x="-25%" y="-25%" width="160%" height="160%" color-interpolation-filters="sRGB"><feDropShadow dx="0.9" dy="1.3" stdDeviation="0.55" flood-color="#0E622D" flood-opacity="1"/></filter></defs><g filter="url(#sh)"><path d="M2.4 8.4a2.4 2.4 0 0 1 2.4-2.4h7.3a2.4 2.4 0 0 1 1.94.99l1.36 1.87a2.4 2.4 0 0 0 1.94.99H26a2.4 2.4 0 0 1 2.4 2.4v9.15A2.4 2.4 0 0 1 26 23.8H4.8a2.4 2.4 0 0 1-2.4-2.4Z" fill="#107234"/><path d="M5.2 15.2a2.4 2.4 0 0 1 2.4-2.4H27.2a2.4 2.4 0 0 1 2.4 2.4v9.8a2.4 2.4 0 0 1-2.4 2.4H7.6a2.4 2.4 0 0 1-2.4-2.4Z" fill="#4ADE80"/><g transform="translate(17.4 19.454) scale(0.574)"><g transform="translate(-12 -12) scale(0.09375)"><path d="M224 200a24 24 0 1 1-24-24a24 24 0 0 1 24 24" fill="#127C39"/><path d="M200 168a32.06 32.06 0 0 0-31 24H72a32 32 0 0 1 0-64h96a40 40 0 0 0 0-80H72a8 8 0 0 0 0 16h96a24 24 0 0 1 0 48H72a48 48 0 0 0 0 96h97a32 32 0 1 0 31-40m0 48a16 16 0 1 1 16-16a16 16 0 0 1-16 16" fill="#0A4821"/></g></g></g><clipPath id="fc"><path d="M5.2 15.2a2.4 2.4 0 0 1 2.4-2.4H27.2a2.4 2.4 0 0 1 2.4 2.4v9.8a2.4 2.4 0 0 1-2.4 2.4H7.6a2.4 2.4 0 0 1-2.4-2.4Z"/></clipPath><g clip-path="url(#fc)"><g transform="rotate(-40 17.4 20.1)"><rect x="-8.6" y="10.3" width="52" height="6" fill="#FFFFFF" opacity="0.2"/><rect x="-8.6" y="18.6" width="52" height="2.2" fill="#FFFFFF" opacity="0.13"/></g></g></svg>